<svg width="40" height="40" viewBox="0 0 40 40" fill="none" xmlns="http://www.w3.org/2000/svg">
<path d="M39.0917 19.7414C39.0464 16.0458 37.9458 12.4401 35.9197 9.34901C33.8936 6.25789 31.0266 3.81007 27.6561 2.29385C24.2853 0.777625 20.5517 0.256145 16.8946 0.790789C13.2376 1.32546 9.80953 2.89397 7.01409 5.31168C4.21862 7.72937 2.17224 10.8955 1.11592 14.4373C0.0596282 17.9791 0.0373742 21.7488 1.05183 25.3029C2.06628 28.8569 4.07516 32.0468 6.8419 34.4974C9.60862 36.9479 13.018 38.5568 16.6685 39.1345V25.3896H11.8202V19.7414H16.6685V15.4507C16.5562 14.4531 16.6643 13.4429 16.9853 12.4916C17.3062 11.5402 17.832 10.6709 18.5256 9.94503C19.2191 9.2191 20.0635 8.65425 20.9992 8.29036C21.9349 7.92645 22.9392 7.77235 23.9409 7.83896C25.3949 7.85887 26.8455 7.98853 28.2801 8.22683V13.0751H25.8559C25.438 13.0224 25.0133 13.0643 24.6138 13.1977C24.2141 13.3311 23.8495 13.5526 23.5469 13.8458C23.2444 14.139 23.0117 14.4965 22.866 14.8917C22.7201 15.2871 22.665 15.7101 22.7046 16.1294V19.7899H28.0861L27.2134 25.4381H22.7288V39.0133C27.3102 38.2887 31.4802 35.946 34.4822 32.4102C37.4843 28.8743 39.1196 24.3797 39.0917 19.7414Z" fill="#AEA089"/>
</svg>
