<svg width="26" height="27" viewBox="0 0 26 27" fill="none" xmlns="http://www.w3.org/2000/svg">
<path d="M5.63439 4.58483H24.6332L22.0483 13.6317H7.02624M23.3407 18.8014H7.83178L5.24696 2H1.36972M9.1242 23.971C9.1242 24.6848 8.54556 25.2634 7.83178 25.2634C7.11801 25.2634 6.53937 24.6848 6.53937 23.971C6.53937 23.2572 7.11801 22.6786 7.83178 22.6786C8.54556 22.6786 9.1242 23.2572 9.1242 23.971ZM23.3407 23.971C23.3407 24.6848 22.7621 25.2634 22.0483 25.2634C21.3345 25.2634 20.7559 24.6848 20.7559 23.971C20.7559 23.2572 21.3345 22.6786 22.0483 22.6786C22.7621 22.6786 23.3407 23.2572 23.3407 23.971Z" stroke="black" stroke-width="2.58483" stroke-linecap="round" stroke-linejoin="round"/>
</svg>
