<svg width="39" height="38" viewBox="0 0 39 38" fill="none" xmlns="http://www.w3.org/2000/svg">
<path d="M30.6801 0.586792H8.25882C4.14826 0.586792 0.785065 3.94998 0.785065 8.06055V30.4818C0.785065 34.5924 4.14826 37.9556 8.25882 37.9556H30.6801C34.7907 37.9556 38.1539 34.5924 38.1539 30.4818V8.06055C38.1539 3.94998 34.7907 0.586792 30.6801 0.586792ZM19.4695 28.6134C14.3313 28.6134 10.1273 24.4094 10.1273 19.2712C10.1273 14.133 14.3313 9.92899 19.4695 9.92899C24.6077 9.92899 28.8117 14.133 28.8117 19.2712C28.8117 24.4094 24.6077 28.6134 19.4695 28.6134ZM29.7459 10.8632C28.7182 10.8632 27.8774 10.0224 27.8774 8.99477C27.8774 7.96713 28.7182 7.12633 29.7459 7.12633C30.7735 7.12633 31.6143 7.96713 31.6143 8.99477C31.6143 10.0224 30.7735 10.8632 29.7459 10.8632Z" fill="#AEA089"/>
</svg>
