<svg width="34" height="38" viewBox="0 0 34 38" fill="none" xmlns="http://www.w3.org/2000/svg">
<path d="M33.6319 9.92919V13.6661C33.6319 14.1616 33.4351 14.6369 33.0847 14.9873C32.7343 15.3377 32.259 15.5345 31.7635 15.5345C29.1382 15.5299 26.5605 14.8339 24.2897 13.5166V25.8109C24.2903 27.9682 23.7163 30.0867 22.6267 31.9486C21.537 33.8104 19.9711 35.3485 18.09 36.4045C16.2089 37.4605 14.0804 37.9964 11.9235 37.9571C9.76659 37.9178 7.65907 37.3047 5.81768 36.1808C3.97629 35.0569 2.4675 33.4628 1.44645 31.5625C0.425411 29.6621 -0.0710267 27.5241 0.00819317 25.3683C0.087413 23.2125 0.739431 21.1167 1.8972 19.2964C3.05496 17.4761 4.67669 15.9971 6.59559 15.0113C6.88273 14.8584 7.20482 14.7831 7.53001 14.7928C7.85519 14.8025 8.1722 14.897 8.44966 15.0669C8.72712 15.2368 8.95541 15.4762 9.11196 15.7613C9.2685 16.0465 9.34787 16.3677 9.3422 16.6929V21.4014C9.32223 21.8402 9.13503 22.2547 8.81904 22.5598C8.14802 23.2386 7.702 24.1073 7.54146 25.0482C7.38092 25.989 7.51364 26.9565 7.92161 27.8193C8.32959 28.6822 8.99307 29.3987 9.82209 29.8717C10.6511 30.3447 11.6055 30.5512 12.5559 30.4633C13.7494 30.3115 14.8446 29.7237 15.631 28.8132C16.4174 27.9026 16.8394 26.7335 16.816 25.5307V2.45543C16.816 1.95989 17.0128 1.48464 17.3632 1.13424C17.7136 0.783842 18.1889 0.58699 18.6844 0.58699H22.6268C23.0719 0.580518 23.5047 0.733187 23.8473 1.0175C24.1898 1.30182 24.4196 1.6991 24.4953 2.13779C24.8491 3.80619 25.763 5.30337 27.0851 6.38076C28.4072 7.45816 30.058 8.05096 31.7635 8.06075C32.259 8.06075 32.7343 8.2576 33.0847 8.608C33.4351 8.9584 33.6319 9.43365 33.6319 9.92919Z" fill="#AEA089"/>
</svg>
