<svg width="45" height="37" viewBox="0 0 45 37" fill="none" xmlns="http://www.w3.org/2000/svg">
<path d="M40.4183 9.64499C40.4361 10.0392 40.445 10.4353 40.445 10.8331C40.445 22.967 31.2084 36.9578 14.3212 36.9578C9.13551 36.9578 4.30854 35.4376 0.245209 32.8323C0.964441 32.9175 1.69436 32.961 2.43584 32.961C6.73801 32.961 10.6965 31.4932 13.8399 29.0299C9.82102 28.9563 6.43077 26.3014 5.26223 22.6535C5.82347 22.761 6.39801 22.8187 6.99025 22.8187C7.82667 22.8187 8.63821 22.706 9.40903 22.4964C5.20898 21.6527 2.04329 17.942 2.04329 13.4933C2.04329 13.4542 2.04329 13.4161 2.04425 13.3779C3.28207 14.0651 4.6975 14.4781 6.2034 14.526C3.73934 12.8798 2.11879 10.0693 2.11879 6.88332C2.11879 5.20067 2.57072 3.62365 3.36185 2.26769C7.89051 7.82273 14.6549 11.4776 22.2861 11.8612C22.1299 11.189 22.0481 10.4884 22.0481 9.76831C22.0481 4.69803 26.1593 0.586792 31.2296 0.586792C33.8722 0.586792 36.2572 1.70208 37.9319 3.48597C40.024 3.07485 41.9881 2.31034 43.7622 1.25803C43.0767 3.4025 41.6222 5.20146 39.7256 6.33803C41.5831 6.116 43.3538 5.62238 45 4.89247C43.7694 6.73329 42.212 8.35025 40.4183 9.64499Z" fill="#AEA089"/>
</svg>
